<?xml version="1.0" encoding="utf-8"?>
<!-- Generator: Adobe Illustrator 19.0.0, SVG Export Plug-In . SVG Version: 6.00 Build 0)  -->
<svg version="1.1" xmlns="http://www.w3.org/2000/svg" xmlns:xlink="http://www.w3.org/1999/xlink" x="0px" y="0px"
	 viewBox="0 0 211 217.5" style="enable-background:new 0 0 211 217.5;" xml:space="preserve">
<style type="text/css">
	.st0{display:none;}
	.st1{display:inline;fill:#B0AFB0;}
	.st2{opacity:0.37;fill:#54B948;}
	.st3{fill:#383838;}
	.st4{opacity:0.2;}
	.st5{fill:#54B948;}
	.st6{opacity:0.3;fill:#383838;}
</style>
<g id="Layer_2" class="st0">
	<ellipse id="XMLID_1_" class="st1" cx="102.7" cy="206" rx="93.8" ry="16.7"/>
</g>
<g id="Layer_1">
	<g id="XMLID_11_">
		<path id="XMLID_7_" class="st2" d="M205.5,117.5c-1.6,29-37,87.5-99.1,87.5C35,205.1,14,145.3,10.7,132.3C2.5,99.8,23,185,106,186
			C190.4,187,206.8,94.1,205.5,117.5z"/>
		<path id="XMLID_8_" class="st3" d="M106.4,207.5c-56.5,0-102.5-46-102.5-102.5c0-56.5,46-102.5,102.5-102.5
			c56.5,0,102.5,46,102.5,102.5C208.9,161.6,162.9,207.5,106.4,207.5z M106.4,7.5C52.7,7.5,8.9,51.3,8.9,105s43.7,97.5,97.5,97.5
			s97.5-43.7,97.5-97.5S160.2,7.5,106.4,7.5z"/>
	</g>
	<circle id="XMLID_4_" class="st3" cx="86" cy="81.7" r="6.7"/>
	<circle id="XMLID_6_" class="st3" cx="124" cy="81.7" r="6.7"/>
	<g id="XMLID_5_">
		<g id="XMLID_23_">
			<path id="XMLID_28_" class="st3" d="M116,131c-4.4,6.8-15.2,6.8-19.6,0c-1.7-2.7-6.1-0.2-4.3,2.5c6.5,10,21.7,10,28.2,0
				C122.1,130.8,117.7,128.3,116,131L116,131z"/>
		</g>
	</g>
	<g id="XMLID_12_" class="st4">
		<g id="XMLID_29_">
			<path id="XMLID_33_" class="st5" d="M145.9,38c11.2,1.7,21,11.3,24.5,21.8c1,3,5.8,1.7,4.8-1.3c-4-12.1-15-23.4-28-25.3
				C144.1,32.7,142.8,37.5,145.9,38L145.9,38z"/>
		</g>
	</g>
	<ellipse id="XMLID_13_" class="st6" cx="105.3" cy="210.1" rx="66.3" ry="3.8"/>
</g>
</svg>
