<?xml version="1.0" encoding="utf-8"?>
<!-- Generator: Adobe Illustrator 19.0.0, SVG Export Plug-In . SVG Version: 6.00 Build 0)  -->
<svg version="1.1" xmlns="http://www.w3.org/2000/svg" xmlns:xlink="http://www.w3.org/1999/xlink" x="0px" y="0px"
	 viewBox="0 0 210 216.5" style="enable-background:new 0 0 210 216.5;" xml:space="preserve">
<style type="text/css">
	.st0{display:none;}
	.st1{display:inline;fill:#B0AFB0;}
	.st2{opacity:0.37;fill:#FFDE17;}
	.st3{fill:#383838;}
	.st4{opacity:0.3;fill:#383838;}
</style>
<g id="Layer_2" class="st0">
	<ellipse id="XMLID_1_" class="st1" cx="101.7" cy="206" rx="93.8" ry="16.7"/>
</g>
<g id="Layer_1">
	<g id="XMLID_11_">
		<path id="XMLID_7_" class="st2" d="M204.5,117.5c-1.6,29-37,87.5-99.1,87.5C34,205.1,13,145.3,9.7,132.3C1.5,99.8,22,185,105,186
			C189.4,187,205.8,94.1,204.5,117.5z"/>
		<path id="XMLID_8_" class="st3" d="M105.4,207.5c-56.5,0-102.5-46-102.5-102.5c0-56.5,46-102.5,102.5-102.5
			c56.5,0,102.5,46,102.5,102.5C207.9,161.6,161.9,207.5,105.4,207.5z M105.4,7.5C51.7,7.5,7.9,51.3,7.9,105s43.7,97.5,97.5,97.5
			s97.5-43.7,97.5-97.5S159.2,7.5,105.4,7.5z"/>
	</g>
	<ellipse id="XMLID_13_" class="st4" cx="104.3" cy="210.1" rx="66.3" ry="3.8"/>
	<g id="XMLID_14_">
		<g id="XMLID_26_">
			<path id="XMLID_30_" class="st3" d="M85,136c12.7,0,25.3,0,38,0c3.2,0,3.2-5,0-5c-12.7,0-25.3,0-38,0C81.8,131,81.8,136,85,136
				L85,136z"/>
		</g>
	</g>
	<g id="XMLID_12_">
		<g id="XMLID_25_">
			<path id="XMLID_34_" class="st3" d="M74.5,84.2c6.7,0,13.3,0,20,0c3.2,0,3.2-5,0-5c-6.7,0-13.3,0-20,0
				C71.3,79.2,71.3,84.2,74.5,84.2L74.5,84.2z"/>
		</g>
	</g>
	<g id="XMLID_5_">
		<g id="XMLID_15_">
			<path id="XMLID_21_" class="st3" d="M115,84.2c6.7,0,13.3,0,20,0c3.2,0,3.2-5,0-5c-6.7,0-13.3,0-20,0
				C111.8,79.2,111.8,84.2,115,84.2L115,84.2z"/>
		</g>
	</g>
</g>
</svg>
